<?xml version="1.0" encoding="utf-8"?>
<!-- Generator: Adobe Illustrator 24.3.0, SVG Export Plug-In . SVG Version: 6.00 Build 0)  -->
<svg version="1.1" id="Layer_1" xmlns="http://www.w3.org/2000/svg" xmlns:xlink="http://www.w3.org/1999/xlink" x="0px" y="0px"
	 viewBox="0 0 140 42" style="enable-background:new 0 0 140 42;" xml:space="preserve">
<style type="text/css">
	.st0{fill:none;}
	.st1{fill:url(#SVGID_1_);}
	.st2{fill:#3C3B37;}
	.st3{fill:#FFFFFF;}
</style>
<path class="st0" d="M-155.5-33.1h119v8h-119V-33.1z"/>
<g>
	
		<linearGradient id="SVGID_1_" gradientUnits="userSpaceOnUse" x1="21.6925" y1="398" x2="21.6925" y2="360" gradientTransform="matrix(1 0 0 1 0 -358)">
		<stop  offset="0" style="stop-color:#EC008B"/>
		<stop  offset="1" style="stop-color:#F15A22"/>
	</linearGradient>
	<circle class="st1" cx="21.7" cy="21" r="19"/>
	<g>
		<path class="st2" d="M51.4,27.6c-0.7-0.7-1-1.8-1-3.2v-9.7h2.3v9.6c0,0.9,0.1,1.5,0.6,1.9c0.5,0.4,0.9,0.6,1.8,0.6h4.5v1.9H55
			C53.3,28.7,52.1,28.3,51.4,27.6z"/>
		<path class="st2" d="M63.1,27.6c-0.9-0.7-1.2-1.8-1.2-3.2V19c0-1.3,0.4-2.5,1.2-3.2c0.9-0.8,2-1,3.7-1h4.8v1.9h-4.8
			c-0.9,0-1.5,0.1-1.9,0.6c-0.4,0.4-0.6,0.9-0.6,1.9v1.8h6.3v1.9h-6.3v1.8c0,0.9,0.1,1.5,0.6,1.9c0.4,0.4,1,0.6,1.9,0.6h4.8V29h-4.8
			C65.2,28.7,64,28.3,63.1,27.6z"/>
		<path class="st2" d="M83.1,24.9h-5.7l-1,3.7H74l3.5-11.3c0.3-0.7,0.4-1.3,0.7-1.8s0.6-0.7,0.9-0.9c0.3-0.3,0.9-0.3,1.2-0.3
			c0.6,0,0.9,0.1,1.2,0.3c0.3,0.1,0.7,0.6,0.9,0.9c0.1,0.4,0.6,0.9,0.7,1.8l3.5,11.3h-2.3L83.1,24.9z M82.5,23.3l-1.8-5.8
			c-0.1-0.3-0.1-0.4-0.3-0.6c-0.2-0.2-0.1-0.1-0.4-0.1s-0.3,0-0.4,0.1c-0.1,0.1-0.1,0.3-0.3,0.6l-1.8,5.8H82.5z"/>
		<path class="st2" d="M100.7,28.7h-2.5l-0.9-3.2c-0.1-0.7-0.4-1.2-0.6-1.5c-0.1-0.3-0.6-0.7-0.9-0.9c-0.4-0.1-0.9-0.3-1.5-0.3h-2.5
			v5.8h-2.3V14.7h5.7c1.6,0,2.8,0.3,3.5,0.9c0.9,0.7,1.2,1.6,1.2,2.9c0,1-0.3,1.8-0.7,2.3c-0.6,0.6-1,1-2,1c0.7,0.3,1,0.7,1.5,1.2
			c0.4,0.6,0.7,1.2,0.9,2.2L100.7,28.7z M95.4,20.9c0.7,0,1.2-0.1,1.6-0.6c0.4-0.4,0.7-1,0.7-1.6c0-0.7-0.3-1.2-0.7-1.6
			c-0.4-0.4-1-0.6-1.6-0.6H92v4.4C92,20.9,95.4,20.9,95.4,20.9z"/>
		<path class="st2" d="M104.2,14.7h2.3v14h-2.3V14.7z"/>
		<path class="st2" d="M122.3,14.7v11.1c0,0.9-0.1,1.6-0.6,2.2c-0.5,0.6-1,0.7-1.9,0.7h-1.6l-4.8-10.4v10.4h-2.2v-14h2.8l5.7,12h0.1
			c0.3,0,0.4-0.1,0.4-0.3c0.1-0.1,0.1-0.6,0.1-1V14.7H122.3z"/>
		<path class="st2" d="M127.4,27.6c-1-0.9-1.5-2.2-1.5-3.8v-4.2c0-1.6,0.6-2.9,1.5-3.8c1-0.9,2.5-1.3,4.4-1.3c1.3,0,2.3,0.1,3.2,0.6
			c0.9,0.4,1.5,1,2,1.8l-1.8,1.2c-0.4-0.7-0.9-1-1.5-1.3c-0.6-0.3-1.2-0.4-2-0.4c-1.2,0-2,0.3-2.6,0.9c-0.6,0.6-0.9,1.3-0.9,2.5v4.2
			c0,1,0.3,1.9,0.9,2.5s1.3,0.9,2.6,0.9c1,0,1.8-0.1,2.3-0.6c0.6-0.4,0.9-0.9,0.9-1.5v-0.9c0-1-0.4-1.5-1.3-1.5h-2.3v-1.9h2.9
			c1,0,1.8,0.3,2.3,0.7c0.6,0.6,0.9,1.2,0.9,2.3v1.3c0,0.9-0.3,1.5-0.7,2c-0.4,0.5-1,1-1.9,1.3c-0.9,0.3-1.8,0.4-2.9,0.4
			C129.9,28.9,128.4,28.5,127.4,27.6z"/>
	</g>
	<g>
		<g>
			<path class="st3" d="M35,20.9c-0.4-0.6-0.9-0.9-1.3-1c-1.2-0.3-2.8,1.6-3.9,2.8c-0.6,0.6-1.6,0.9-1.9,0.6c-0.1-0.1-0.1-0.6,0-1
				c1.5-4.5,1.5-7.5,0.1-8.5c-1.3-0.9-3.5,0.4-6.1,3.7c1-2.3,1.5-4.5,1-6c-0.1-0.6-0.6-0.9-1-1c-2.5-0.9-6.3,1.9-9.1,4.7
				C9.5,18.1,6,23.3,6.4,27.1c0.1,1.2,0.7,1.6,1,1.8c0.1,0,0.3,0.1,0.4,0.1c0.3,0,0.6-0.1,0.9-0.4c0.3-0.3,0.4-0.7,0.3-1
				C8.3,24.9,12,19.4,15.8,16c2.2-2,3.2-2.2,3.5-2c0.1,0.1,0.1,0.4,0.1,0.9c-0.1,0.6-0.4,1.3-0.7,2.3c-1.2,3.9-1.9,6.6-1,7.5
				c0.4,0.4,0.9,0.4,1.5,0c0.4-0.3,0.9-0.6,1.3-1.2c3.9-5.3,5.4-6.6,6-6.7c0,0.6-0.3,1.8-0.4,2.6C25.6,22,24.9,25,26.3,26
				c1.2,1,3.8-0.1,8.2-3.7C34.8,22,35.5,21.6,35,20.9L35,20.9z"/>
			<path class="st3" d="M35.2,17.6c-0.1,0.6,0,1,0.4,1.6c0.4,0.4,1,0.6,1.6,0.3c0.7-0.3,1.2-0.9,1.3-1.5c0.1-0.6,0-1.2-0.3-1.5l0,0
				c-0.4-0.4-0.9-0.6-1.6-0.3C35.9,16.3,35.5,16.9,35.2,17.6z"/>
		</g>
	</g>
</g>
</svg>
