<svg width="142" height="40" viewBox="0 0 142 40" fill="none" xmlns="http://www.w3.org/2000/svg">
<path d="M20.0403 40C31.1083 40 40.0806 31.0457 40.0806 20C40.0806 8.95431 31.1083 0 20.0403 0C8.97235 0 0 8.95431 0 20C0 31.0457 8.97235 40 20.0403 40Z" fill="url(#paint0_linear)"/>
<path d="M51.3893 27C50.6736 26.2857 50.2441 25.1429 50.2441 23.5714V13.4286H52.6776V23.5714C52.6776 24.4286 52.8207 25.1429 53.2502 25.5714C53.6796 26 54.2522 26.1429 55.1111 26.1429H59.8349V28.1429H55.1111C53.3933 28.1429 52.105 27.7143 51.3893 27Z" fill="#3C3B37"/>
<path d="M63.6994 27C62.8406 26.2857 62.4111 25.1428 62.4111 23.5714V17.8571C62.4111 16.4286 62.8406 15.2857 63.6994 14.4286C64.5583 13.5714 65.8466 13.2857 67.5644 13.2857H72.5744V15.2857H67.5644C66.7055 15.2857 65.9898 15.4286 65.5603 15.8571C65.1309 16.2857 64.9877 16.8571 64.9877 17.8571V19.7143H71.5724V21.7143H64.9877V23.5714C64.9877 24.4286 65.1309 25.1428 65.5603 25.5714C65.9898 26 66.7055 26.1428 67.5644 26.1428H72.5744V28.1428H67.5644C65.8466 28.1428 64.5583 27.7143 63.6994 27Z" fill="#3C3B37"/>
<path d="M84.7421 24.1429H78.73L77.5848 28H75.1514L78.8731 16.1429C79.1594 15.4286 79.3026 14.7143 79.5889 14.2857C79.8752 13.8571 80.1614 13.5714 80.4477 13.2857C80.734 13 81.3066 13 81.736 13C82.3086 13 82.7381 13.1429 83.0243 13.2857C83.3106 13.4286 83.7401 13.8571 83.8832 14.2857C84.0264 14.7143 84.4558 15.2857 84.5989 16.1429L88.3207 28H85.8872L84.7421 24.1429ZM84.1695 22.4286L82.3086 16.2857C82.1655 16 82.1655 15.8571 82.0223 15.7143C81.8792 15.5714 81.8792 15.5714 81.5929 15.5714C81.3066 15.5714 81.3066 15.5714 81.1635 15.7143C81.0203 15.8571 81.0203 16 80.8772 16.2857L79.0163 22.4286H84.1695Z" fill="#3C3B37"/>
<path d="M103.351 28.1429H100.774L99.7725 24.7143C99.6293 24 99.343 23.4286 99.1999 23.1429C99.0567 22.8572 98.6273 22.4286 98.341 22.2857C97.9116 22.1429 97.4822 22 96.7664 22H94.1898V28.1429H91.7563V13.4286H97.7684C99.4862 13.4286 100.631 13.7143 101.49 14.4286C102.349 15.1429 102.779 16.1429 102.779 17.5714C102.779 18.5714 102.492 19.4286 102.063 20C101.49 20.5714 100.918 21 99.9156 21.1429C100.631 21.4286 101.061 21.8572 101.49 22.4286C101.92 23 102.206 23.7143 102.492 24.7143L103.351 28.1429ZM97.7684 19.8572C98.4842 19.8572 99.0567 19.7143 99.4862 19.2857C99.9156 18.8572 100.202 18.2857 100.202 17.5714C100.202 16.8572 99.9156 16.2857 99.4862 15.8572C99.0567 15.4286 98.4842 15.2857 97.7684 15.2857H94.1898V19.8572H97.7684Z" fill="#3C3B37"/>
<path d="M107.073 13.4286H109.506V28.1429H107.073V13.4286Z" fill="#3C3B37"/>
<path d="M126.111 13.4286V25.1429C126.111 26.1429 125.968 26.8572 125.538 27.4286C125.109 28 124.536 28.1429 123.534 28.1429H121.817L116.663 17.2857V28.1429H114.373V13.4286H117.236L123.248 26H123.391C123.677 26 123.821 25.8572 123.821 25.7143C123.964 25.5714 123.964 25.1429 123.964 24.7143V13.4286H126.111Z" fill="#3C3B37"/>
<path d="M131.55 27C130.548 26.1428 129.976 24.7143 129.976 23V18.5714C129.976 16.8571 130.548 15.4285 131.55 14.5714C132.552 13.7143 134.127 13.1428 136.131 13.1428C137.562 13.1428 138.564 13.2857 139.566 13.7143C140.425 14.1428 141.141 14.7143 141.713 15.5714L139.853 16.8571C139.423 16.1428 138.851 15.7143 138.278 15.4285C137.705 15.1428 136.99 15 136.131 15C134.843 15 133.984 15.2857 133.411 15.8571C132.838 16.4285 132.552 17.2857 132.552 18.4285V22.8571C132.552 24 132.838 24.8571 133.411 25.4285C133.984 26 134.843 26.2857 136.131 26.2857C137.276 26.2857 137.992 26.1428 138.564 25.7143C139.137 25.2857 139.423 24.8571 139.423 24.1428V23.2857C139.423 22.2857 138.994 21.7143 137.992 21.7143H135.558V19.7143H138.707C139.853 19.7143 140.568 20 141.141 20.4285C141.713 21 142 21.7143 142 22.8571V24.2857C142 25.1428 141.713 25.8571 141.284 26.4285C140.855 27 140.139 27.4285 139.28 27.8571C138.421 28.1428 137.419 28.2857 136.131 28.2857C134.127 28.2857 132.552 27.8571 131.55 27Z" fill="#3C3B37"/>
<path d="M34.0686 19.8571C33.6392 19.2857 33.2098 18.8571 32.6372 18.7143C31.3489 18.4286 29.7743 20.4286 28.486 21.5714C27.9134 22.1429 26.7682 22.5714 26.4819 22.1429C26.3388 22 26.3388 21.5714 26.4819 21C28.0565 16.2857 28.0565 13.1429 26.6251 12.1429C25.1936 11.1429 22.9033 12.5714 20.1836 16C21.1856 13.5714 21.7582 11.2857 21.1856 9.71428C21.0424 9.14286 20.613 8.71428 20.0404 8.57143C17.4638 7.71428 13.4558 10.5714 10.4497 13.4286C7.15737 16.7143 3.4356 22.1429 3.86504 26.1429C4.00818 27.4286 4.58076 27.8571 4.86705 28C5.0102 28 5.15334 28.1429 5.29649 28.1429C5.58278 28.1429 5.86907 28 6.15536 27.7143C6.44165 27.4286 6.58479 27 6.44165 26.7143C5.86907 23.8571 9.73398 18 13.742 14.4286C16.0324 12.2857 17.1775 12.1429 17.4638 12.2857C17.607 12.4286 17.607 12.7143 17.607 13.2857C17.4638 13.8571 17.1775 14.7143 16.8912 15.7143C15.6029 19.8571 14.8872 22.5714 15.7461 23.5714C16.1755 24 16.6049 24 17.3207 23.5714C17.7501 23.2857 18.1795 23 18.7521 22.2857C22.9033 16.7143 24.4779 15.4286 25.0505 15.1429C25.0505 15.7143 24.7642 17 24.6211 17.8571C24.0485 20.7143 23.3328 23.8571 24.7642 25C26.0525 26.1429 28.7723 24.8571 33.3529 21.1429C33.7823 21.1429 34.4981 20.5714 34.0686 19.8571Z" fill="white"/>
<path d="M34.2114 16.4286C34.0682 17 34.2114 17.5715 34.6408 18.1429C35.0703 18.5715 35.6428 18.7143 36.3586 18.4286C37.0743 18.1429 37.6469 17.5715 37.79 16.8572C37.9332 16.2857 37.79 15.5715 37.5037 15.2857C37.0743 14.8572 36.5017 14.7143 35.786 15C35.0703 15.1429 34.4977 15.7143 34.2114 16.4286Z" fill="white"/>
<defs>
<linearGradient id="paint0_linear" x1="0" y1="20" x2="40" y2="20" gradientUnits="userSpaceOnUse">
<stop stop-color="#FF512F"/>
<stop offset="1" stop-color="#F50057"/>
</linearGradient>
</defs>
</svg>
