<svg width="142" height="40" viewBox="0 0 142 40" fill="none" xmlns="http://www.w3.org/2000/svg">
<path d="M39.5806 20C39.5806 30.7686 30.8331 39.5 20.0403 39.5C9.24754 39.5 0.5 30.7686 0.5 20C0.5 9.2314 9.24754 0.5 20.0403 0.5C30.8331 0.5 39.5806 9.2314 39.5806 20Z" stroke="white"/>
<path d="M51.3893 27.0001C50.6736 26.2859 50.2441 25.143 50.2441 23.5716V13.4287H52.6776V23.5716C52.6776 24.4287 52.8207 25.143 53.2502 25.5716C53.6796 26.0001 54.2522 26.143 55.1111 26.143H59.8349V28.143H55.1111C53.3933 28.143 52.105 27.7144 51.3893 27.0001Z" fill="white"/>
<path d="M63.6994 26.9999C62.8406 26.2856 62.4111 25.1428 62.4111 23.5714V17.8571C62.4111 16.4285 62.8406 15.2856 63.6994 14.4285C64.5583 13.5714 65.8466 13.2856 67.5644 13.2856H72.5744V15.2856H67.5644C66.7055 15.2856 65.9898 15.4285 65.5603 15.8571C65.1309 16.2856 64.9877 16.8571 64.9877 17.8571V19.7142H71.5724V21.7142H64.9877V23.5714C64.9877 24.4285 65.1309 25.1428 65.5603 25.5714C65.9898 25.9999 66.7055 26.1428 67.5644 26.1428H72.5744V28.1428H67.5644C65.8466 28.1428 64.5583 27.7142 63.6994 26.9999Z" fill="white"/>
<path d="M84.7421 24.1429H78.73L77.5848 28H75.1514L78.8731 16.1429C79.1594 15.4286 79.3026 14.7143 79.5889 14.2857C79.8752 13.8571 80.1614 13.5714 80.4477 13.2857C80.734 13 81.3066 13 81.736 13C82.3086 13 82.7381 13.1429 83.0243 13.2857C83.3106 13.4286 83.7401 13.8571 83.8832 14.2857C84.0264 14.7143 84.4558 15.2857 84.5989 16.1429L88.3207 28H85.8872L84.7421 24.1429ZM84.1695 22.4286L82.3086 16.2857C82.1655 16 82.1655 15.8571 82.0223 15.7143C81.8792 15.5714 81.8792 15.5714 81.5929 15.5714C81.3066 15.5714 81.3066 15.5714 81.1635 15.7143C81.0203 15.8571 81.0203 16 80.8772 16.2857L79.0163 22.4286H84.1695Z" fill="white"/>
<path d="M103.351 28.143H100.774L99.7725 24.7144C99.6293 24.0001 99.343 23.4287 99.1999 23.143C99.0567 22.8573 98.6273 22.4287 98.341 22.2859C97.9116 22.143 97.4822 22.0001 96.7664 22.0001H94.1898V28.143H91.7563V13.4287H97.7684C99.4862 13.4287 100.631 13.7144 101.49 14.4287C102.349 15.143 102.779 16.143 102.779 17.5716C102.779 18.5716 102.492 19.4287 102.063 20.0001C101.49 20.5716 100.918 21.0001 99.9156 21.143C100.631 21.4287 101.061 21.8573 101.49 22.4287C101.92 23.0001 102.206 23.7144 102.492 24.7144L103.351 28.143ZM97.7684 19.8573C98.4842 19.8573 99.0567 19.7144 99.4862 19.2859C99.9156 18.8573 100.202 18.2859 100.202 17.5716C100.202 16.8573 99.9156 16.2859 99.4862 15.8573C99.0567 15.4287 98.4842 15.2859 97.7684 15.2859H94.1898V19.8573H97.7684Z" fill="white"/>
<path d="M107.073 13.4287H109.506V28.143H107.073V13.4287Z" fill="white"/>
<path d="M126.111 13.4287V25.143C126.111 26.143 125.968 26.8573 125.538 27.4287C125.109 28.0001 124.536 28.143 123.534 28.143H121.817L116.663 17.2859V28.143H114.373V13.4287H117.236L123.248 26.0001H123.391C123.677 26.0001 123.821 25.8573 123.821 25.7144C123.964 25.5716 123.964 25.143 123.964 24.7144V13.4287H126.111Z" fill="white"/>
<path d="M131.55 27.0002C130.548 26.1431 129.976 24.7145 129.976 23.0002V18.5716C129.976 16.8574 130.548 15.4288 131.55 14.5716C132.552 13.7145 134.127 13.1431 136.131 13.1431C137.562 13.1431 138.564 13.2859 139.566 13.7145C140.425 14.1431 141.141 14.7145 141.713 15.5716L139.853 16.8574C139.423 16.1431 138.851 15.7145 138.278 15.4288C137.705 15.1431 136.99 15.0002 136.131 15.0002C134.843 15.0002 133.984 15.2859 133.411 15.8574C132.838 16.4288 132.552 17.2859 132.552 18.4288V22.8574C132.552 24.0002 132.838 24.8574 133.411 25.4288C133.984 26.0002 134.843 26.2859 136.131 26.2859C137.276 26.2859 137.992 26.1431 138.564 25.7145C139.137 25.2859 139.423 24.8574 139.423 24.1431V23.2859C139.423 22.2859 138.994 21.7145 137.992 21.7145H135.558V19.7145H138.707C139.853 19.7145 140.568 20.0002 141.141 20.4288C141.713 21.0002 142 21.7145 142 22.8574V24.2859C142 25.1431 141.713 25.8574 141.284 26.4288C140.855 27.0002 140.139 27.4288 139.28 27.8574C138.421 28.1431 137.419 28.2859 136.131 28.2859C134.127 28.2859 132.552 27.8574 131.55 27.0002Z" fill="white"/>
<path d="M34.0686 19.8573C33.6392 19.2859 33.2098 18.8573 32.6372 18.7145C31.3489 18.4288 29.7743 20.4288 28.486 21.5716C27.9134 22.143 26.7682 22.5716 26.4819 22.143C26.3388 22.0002 26.3388 21.5716 26.4819 21.0002C28.0565 16.2859 28.0565 13.143 26.6251 12.143C25.1936 11.143 22.9033 12.5716 20.1836 16.0002C21.1856 13.5716 21.7582 11.2859 21.1856 9.71447C21.0424 9.14304 20.613 8.71447 20.0404 8.57161C17.4638 7.71447 13.4558 10.5716 10.4497 13.4288C7.15737 16.7145 3.4356 22.143 3.86504 26.143C4.00818 27.4288 4.58076 27.8573 4.86705 28.0002C5.0102 28.0002 5.15334 28.143 5.29649 28.143C5.58278 28.143 5.86907 28.0002 6.15536 27.7145C6.44165 27.4288 6.58479 27.0002 6.44165 26.7145C5.86907 23.8573 9.73398 18.0002 13.742 14.4288C16.0324 12.2859 17.1775 12.143 17.4638 12.2859C17.607 12.4288 17.607 12.7145 17.607 13.2859C17.4638 13.8573 17.1775 14.7145 16.8912 15.7145C15.6029 19.8573 14.8872 22.5716 15.7461 23.5716C16.1755 24.0002 16.6049 24.0002 17.3207 23.5716C17.7501 23.2859 18.1795 23.0002 18.7521 22.2859C22.9033 16.7145 24.4779 15.4288 25.0505 15.143C25.0505 15.7145 24.7642 17.0002 24.6211 17.8573C24.0485 20.7145 23.3328 23.8573 24.7642 25.0002C26.0525 26.143 28.7723 24.8573 33.3529 21.143C33.7823 21.143 34.4981 20.5716 34.0686 19.8573Z" fill="white"/>
<path d="M34.2114 16.4288C34.0682 17.0002 34.2114 17.5716 34.6408 18.1431C35.0703 18.5716 35.6428 18.7145 36.3586 18.4288C37.0743 18.1431 37.6469 17.5716 37.79 16.8574C37.9332 16.2859 37.79 15.5716 37.5037 15.2859C37.0743 14.8574 36.5017 14.7145 35.786 15.0002C35.0703 15.1431 34.4977 15.7145 34.2114 16.4288Z" fill="white"/>
</svg>
