<svg width="28" height="28" viewBox="0 0 28 28" fill="none" xmlns="http://www.w3.org/2000/svg">
<g clip-path="url(#clip0)">
<path d="M21.5428 7.85144C19.8971 7.85144 18.3428 8.49144 17.2342 9.60001L13.9999 12.4686L12.2628 14H12.2742L9.19993 16.7314C8.4685 17.4629 7.49707 17.8629 6.45707 17.8629C4.31993 17.8629 2.58279 16.1372 2.58279 14C2.58279 11.8629 4.31993 10.1372 6.45707 10.1372C7.49707 10.1372 8.4685 10.5372 9.24565 11.3143L10.5371 12.4572L12.2628 10.9257L10.8228 9.65715C9.65707 8.49144 8.10279 7.85144 6.45707 7.85144C3.05136 7.85144 0.285645 10.6172 0.285645 14C0.285645 17.3829 3.05136 20.1486 6.45707 20.1486C8.10279 20.1486 9.65707 19.5086 10.7656 18.4L13.9999 15.5429L14.0114 15.5543L15.7371 14H15.7256L18.7999 11.2686C19.5314 10.5372 20.5028 10.1372 21.5428 10.1372C23.6799 10.1372 25.4171 11.8629 25.4171 14C25.4171 16.1372 23.6799 17.8629 21.5428 17.8629C20.5142 17.8629 19.5314 17.4629 18.7542 16.6857L17.4514 15.5314L15.7256 17.0629L17.1771 18.3429C18.3428 19.4972 19.8856 20.1372 21.5428 20.1372C24.9485 20.1372 27.7142 17.3829 27.7142 13.9886C27.7142 10.5943 24.9485 7.85144 21.5428 7.85144V7.85144Z" fill="#FF512F"/>
</g>
<defs>
<clipPath id="clip0">
<rect width="27.4286" height="27.4286" fill="white" transform="translate(0.285645 0.285767)"/>
</clipPath>
</defs>
</svg>
