<svg width="64" height="16" viewBox="0 0 64 16" fill="none" xmlns="http://www.w3.org/2000/svg">
<path d="M8.00016 11.5134L12.1202 14L11.0268 9.31337L14.6668 6.16004L9.8735 5.75337L8.00016 1.33337L6.12683 5.75337L1.3335 6.16004L4.9735 9.31337L3.88016 14L8.00016 11.5134Z" fill="#FFB400"/>
<path d="M24.0002 11.5134L28.1202 14L27.0268 9.31337L30.6668 6.16004L25.8735 5.75337L24.0002 1.33337L22.1268 5.75337L17.3335 6.16004L20.9735 9.31337L19.8802 14L24.0002 11.5134Z" fill="#FFB400"/>
<path d="M40.0002 11.5134L44.1202 14L43.0268 9.31337L46.6668 6.16004L41.8735 5.75337L40.0002 1.33337L38.1268 5.75337L33.3335 6.16004L36.9735 9.31337L35.8802 14L40.0002 11.5134Z" fill="#FFB400"/>
<path d="M62.6668 6.16004L57.8735 5.74671L56.0002 1.33337L54.1268 5.75337L49.3335 6.16004L52.9735 9.31337L51.8802 14L56.0002 11.5134L60.1202 14L59.0335 9.31337L62.6668 6.16004ZM56.0002 10.2667V4.06671L57.1402 6.76004L60.0602 7.01337L57.8468 8.93337L58.5135 11.7867L56.0002 10.2667Z" fill="#FFB400"/>
</svg>
